<?xml version="1.0" encoding="iso-8859-1"?>
<!-- Generator: Adobe Illustrator 19.0.0, SVG Export Plug-In . SVG Version: 6.00 Build 0)  -->
<svg version="1.1" id="Capa_1" xmlns="http://www.w3.org/2000/svg" xmlns:xlink="http://www.w3.org/1999/xlink" x="0px" y="0px"
	 viewBox="0 0 512 512" style="enable-background:new 0 0 512 512;" xml:space="preserve">
<g>
	<g>
		<path d="M407.049,374.116C432.609,341.501,448,300.552,448,256c0-90.642-63.219-166.635-147.828-186.668
			c-20.331-40.928-34.803-63.824-35.214-64.457c-2-3.083-5.563-4.344-9.104-4.875c-3.667,0.052-7.052,1.99-8.969,5.125
			c-13.104,21.53-25.096,43.079-36.173,64.495C126.668,90.059,64,165.759,64,256c0,43.934,14.993,84.344,39.917,116.736
			c-15.991,76.875-18.526,127.029-18.573,128.139c-0.198,4.635,2.615,8.865,6.979,10.469C93.521,511.792,94.771,512,96,512
			c3.219,0,6.354-1.469,8.417-4.115c21.271-27.348,43.971-54.917,66.02-80.258C196.24,440.547,225.236,448,256,448
			c41.203,0,79.322-13.169,110.633-35.35c13.883,22.866,27.654,47.781,39.826,72.121c2.344,4.667,7.729,6.938,12.75,5.406
			c5-1.583,8.115-6.552,7.344-11.74C421.146,441.94,414.5,407.141,407.049,374.116z M117.978,312.863
			c-7.255-17.542-11.311-36.73-11.311-56.863c0-56.177,31.21-105.164,77.172-130.652
			C153.612,192.699,132.57,257.031,117.978,312.863z M256,405.333c-19.745,0-38.563-3.941-55.829-10.932
			C240.432,350.853,274.689,320,288,320c11.602,0,32.53,23.31,55.503,56.753C318.879,394.646,288.698,405.333,256,405.333z
			 M392.573,316.158c-20.807-77.03-45.129-141.893-67.052-192.215c47.401,25.056,79.813,74.814,79.813,132.057
			C405.333,277.409,400.721,297.733,392.573,316.158z"/>
	</g>
</g>
<g>
</g>
<g>
</g>
<g>
</g>
<g>
</g>
<g>
</g>
<g>
</g>
<g>
</g>
<g>
</g>
<g>
</g>
<g>
</g>
<g>
</g>
<g>
</g>
<g>
</g>
<g>
</g>
<g>
</g>
</svg>
